HIERARCHY
ROOT Hips
{
	OFFSET -3.958830 18.904000 13.208200
	CHANNELS 6 Xposition Yposition Zposition Zrotation Yrotation Xrotation 
	JOINT LHipJoint
	{
		OFFSET 0.000000 0.000000 0.000000
		CHANNELS 3 Zrotation Yrotation Xrotation
		JOINT LeftUpLeg
		{
			OFFSET 1.800000 -1.400000 0.085000
			CHANNELS 3 Zrotation Yrotation Xrotation
			JOINT LeftLeg
			{
				OFFSET 2.215000 -6.000000 0.000000
				CHANNELS 3 Zrotation Yrotation Xrotation
				JOINT LeftFoot
				{
					OFFSET 2.500000 -6.900000 0.000000
					CHANNELS 3 Zrotation Yrotation Xrotation
					JOINT LeftToeBase
					{
						OFFSET 0.200000 -0.500000 1.950000
						CHANNELS 3 Zrotation Yrotation Xrotation
						End Site
						{
							OFFSET 0.000000 0.000000 0.000000
						}
					}
				}
			}
		}
	}
	JOINT RHipJoint
	{
		OFFSET 0.000000 0.000000 0.000000
		CHANNELS 3 Zrotation Yrotation Xrotation
		JOINT RightUpLeg
		{
			OFFSET -1.800000 -1.400000 0.085000
			CHANNELS 3 Zrotation Yrotation Xrotation
			JOINT RightLeg
			{
				OFFSET -2.215000 -6.000000 0.000000
				CHANNELS 3 Zrotation Yrotation Xrotation
				JOINT RightFoot
				{
					OFFSET -2.500000 -6.900000 0.000000
					CHANNELS 3 Zrotation Yrotation Xrotation
					JOINT RightToeBase
					{
						OFFSET -0.200000 -0.500000 1.950000
						CHANNELS 3 Zrotation Yrotation Xrotation
						End Site
						{
							OFFSET 0.000000 0.000000 0.000000
						}
					}
				}
			}
		}
	}
	JOINT LowerBack
	{
		OFFSET 0.000000 0.000000 0.000000
		CHANNELS 3 Zrotation Yrotation Xrotation
		JOINT Spine
		{
			OFFSET -0.087000 1.940000 -0.288900
			CHANNELS 3 Zrotation Yrotation Xrotation
			JOINT Spine1
			{
				OFFSET 0.000000 1.950000 0.060000
				CHANNELS 3 Zrotation Yrotation Xrotation
				JOINT Neck
				{
					OFFSET 0.000000 0.000000 0.000000
					CHANNELS 3 Zrotation Yrotation Xrotation
					JOINT Neck1
					{
						OFFSET 0.000000 1.600000 0.340000
						CHANNELS 3 Zrotation Yrotation Xrotation
						JOINT Head
						{
							OFFSET 0.000000 1.667000 -0.240000
							CHANNELS 3 Zrotation Yrotation Xrotation
							End Site
							{
								OFFSET 0.000000 0.000000 0.000000
							}
						}
					}
				}
				JOINT LeftShoulder
				{
					OFFSET 0.000000 0.000000 0.000000
					CHANNELS 3 Zrotation Yrotation Xrotation
					JOINT LeftArm
					{
						OFFSET 2.700000 1.550000 -0.730000
						CHANNELS 3 Zrotation Yrotation Xrotation
						JOINT LeftForeArm
						{
							OFFSET 5.450000 0.000000 0.000000
							CHANNELS 3 Zrotation Yrotation Xrotation
							JOINT LeftHand
							{
								OFFSET 3.450000 0.000000 0.000000
								CHANNELS 3 Zrotation Yrotation Xrotation
								JOINT LeftHandIndex1
								{
									OFFSET 0.750000 0.000000 0.000000
									CHANNELS 3 Zrotation Yrotation Xrotation
									End Site
									{
										OFFSET 0.000000 0.000000 0.000000
									}
								}
							}
						}
					}
				}
				JOINT RightShoulder
				{
					OFFSET 0.000000 0.000000 0.000000
					CHANNELS 3 Zrotation Yrotation Xrotation
					JOINT RightArm
					{
						OFFSET -2.700000 1.550000 -0.730000
						CHANNELS 3 Zrotation Yrotation Xrotation
						JOINT RightForeArm
						{
							OFFSET -5.450000 0.000000 0.000000
							CHANNELS 3 Zrotation Yrotation Xrotation
							JOINT RightHand
							{
								OFFSET -3.450000 0.000000 0.000000
								CHANNELS 3 Zrotation Yrotation Xrotation
								JOINT RightHandIndex1
								{
									OFFSET -0.750000 0.000000 0.000000
									CHANNELS 3 Zrotation Yrotation Xrotation
									End Site
									{
										OFFSET 0.000000 0.000000 0.000000
									}
								}
							}
						}
					}
				}
			}
		}
	}
}
MOTION
Frames: 4
Frame Time: 0.016667
0.910320 12.885310 -2.971540 -67.578330 19.483066 -44.594790 -15.385276 11.593587 5.647630 5.636323 -9.360576 -41.973288 -23.282808 16.954485 38.908641 0.970986 9.573735 1.335835 0.185130 -0.133270 0.211260 18.295482 -9.809721 2.729826 2.284223 7.119992 -26.171572 -24.172911 4.505774 42.242654 -0.890805 -6.162390 2.194653 -0.206260 0.407440 0.413360 -3.450848 -1.672884 -8.943069 11.970440 -2.088510 47.214363 -7.896527 4.605765 11.559325 4.860551 3.642723 -17.093360 3.874656 0.989882 41.870859 6.735170 -0.671030 1.450100 -18.454958 -27.556981 11.413620 -16.196348 -7.256333 1.782901 0.718113 2.113207 -0.564020 -3.836825 2.855257 0.464010 0.130900 0.143440 0.255680 7.925182 27.676755 11.349622 1.132547 1.830384 -12.725693 -118.155876 51.334673 -88.376075 2.303588 -1.194574 -0.077690 0.073720 -0.077700 0.064760 
0.918210 12.894520 -2.988360 -67.099647 20.018021 -44.457245 -15.395596 11.649925 5.553835 4.513477 -9.542738 -41.238477 -22.801080 16.565546 38.485431 0.892200 9.349664 1.373134 0.226170 -0.136650 0.281020 18.286317 -9.756842 2.818481 2.920396 7.354537 -26.254239 -27.757835 6.129058 41.925211 -1.008165 -6.480938 2.050046 -0.200320 0.330280 0.411350 -3.423003 -1.799723 -8.952573 10.941275 -1.697493 47.854616 -7.585793 4.606404 11.061059 4.597236 3.295632 -17.081105 3.035384 1.271897 42.353749 7.615940 -0.845460 0.607990 -18.348134 -27.256872 11.224843 -16.643521 -7.283999 1.608336 1.383115 1.500521 -0.593681 -3.781340 2.902070 0.521640 0.072530 0.162070 0.222370 8.432337 27.546549 11.472486 1.855604 0.616292 -13.215399 -116.764089 52.249972 -87.504404 2.310767 -1.135439 -0.082000 0.025220 -0.091360 0.016050 
0.931630 12.884020 -3.022730 -68.250743 22.058735 -44.757027 -15.397402 11.826450 5.492823 0.906413 -10.896952 -40.436177 -18.944149 14.312422 38.377177 0.740186 8.466449 1.648295 0.268220 -0.121870 0.311910 18.260863 -9.829910 2.800995 2.860903 6.586959 -26.459030 -30.990530 7.019021 40.030394 -1.075300 -6.582484 1.974322 -0.208880 0.280640 0.431360 -3.412981 -2.045925 -8.898888 10.577127 -2.583481 48.095885 -7.180254 3.365799 10.610229 4.467992 2.378970 -17.778174 0.977252 2.079630 42.837755 8.921610 -1.399940 2.013710 -17.798663 -27.845240 11.725417 -17.819719 -6.892875 1.603203 1.857363 1.544459 -0.553996 -3.701253 3.006572 0.542730 0.023430 0.190510 0.236440 8.324651 28.408620 11.936057 2.232932 -1.016076 -13.830250 -115.744020 52.526853 -86.580785 2.337368 -1.167856 -0.050480 -0.043300 -0.129240 0.017750 
0.937310 12.895000 -3.038370 -69.849266 23.564543 -45.886367 -15.405183 12.074860 5.371191 -2.161120 -11.408798 -38.585383 -14.120970 12.138755 38.920140 0.556702 7.697428 1.867470 0.328210 -0.107470 0.400840 18.214470 -9.955092 2.765502 2.294035 5.960773 -26.632294 -30.706876 6.704909 40.212797 -1.088984 -6.563898 1.933744 -0.212900 0.185830 0.466010 -3.364713 -2.227558 -8.792165 10.719067 -3.233365 48.942294 -6.698387 2.616750 9.986002 4.472156 3.270158 -17.674490 2.548674 1.081177 43.128577 7.965720 -1.270240 1.038810 -18.290453 -28.205536 11.890881 -17.658304 -6.854145 1.436360 2.221975 1.186739 -0.588353 -3.639881 3.084946 0.587530 -0.025850 0.229900 0.214070 8.688382 27.838954 11.537308 1.943815 -1.857691 -14.259478 -112.809472 53.644690 -82.796792 2.329546 -1.047942 -0.018570 -0.124220 -0.161250 -0.023860 
